<svg xmlns="http://www.w3.org/2000/svg" xmlns:xlink="http://www.w3.org/1999/xlink" width="0" height="0" style="position:absolute">
	
		<symbol id="01" viewBox="0 0 126 126">
			<mask id="a" maskUnits="userSpaceOnUse" x="0" y="0" width="126" height="126"><path d="M126 63c0 34.794-28.206 63-63 63S0 97.794 0 63 28.206 0 63 0s63 28.206 63 63z"/></mask><g mask="url(#a)"><path d="M61.27-27.005l-88.262 88.261 4.413 4.413 88.26-88.261-4.412-4.413zM71.059-17.215l-88.261 88.261 4.412 4.413 88.261-88.261-4.412-4.413zM80.872-7.395l-88.26 88.261 4.412 4.413 88.26-88.261-4.412-4.413zM90.678 2.422L2.418 90.683l4.412 4.412 88.26-88.26-4.412-4.413zM100.485 12.215l-88.261 88.261 4.412 4.412 88.261-88.26-4.412-4.413zM110.298 22.035l-88.26 88.261 4.412 4.413 88.261-88.261-4.413-4.413zM120.095 31.832l-88.261 88.261 4.412 4.413 88.261-88.261-4.412-4.413zM129.901 41.645l-88.26 88.261 4.412 4.413 88.261-88.261-4.413-4.413zM139.698 51.442l-88.262 88.261 4.413 4.412 88.261-88.26-4.412-4.413zM149.521 61.272L61.26 149.533l4.412 4.413 88.261-88.261-4.412-4.413z"/></g>
		</symbol>
	
		<symbol id="02" viewBox="0 0 95 65">
			<circle cx="2.5" cy="62.501" r="2.5"/><circle cx="20.5" cy="62.501" r="2.5"/><circle cx="38.501" cy="62.501" r="2.5"/><circle cx="56.501" cy="62.501" r="2.5"/><circle cx="74.501" cy="62.501" r="2.5"/><circle cx="92.501" cy="62.501" r="2.5"/><circle cx="2.5" cy="42.501" r="2.5"/><circle cx="20.5" cy="42.501" r="2.5"/><circle cx="38.501" cy="42.501" r="2.5"/><circle cx="56.501" cy="42.501" r="2.5"/><circle cx="74.501" cy="42.501" r="2.5"/><circle cx="92.501" cy="42.501" r="2.5"/><circle cx="2.5" cy="22.5" r="2.5"/><circle cx="20.5" cy="22.5" r="2.5"/><circle cx="38.501" cy="22.5" r="2.5"/><circle cx="56.501" cy="22.5" r="2.5"/><circle cx="74.501" cy="22.5" r="2.5"/><circle cx="92.501" cy="22.5" r="2.5"/><circle cx="2.5" cy="2.5" r="2.5"/><circle cx="20.5" cy="2.5" r="2.5"/><circle cx="38.501" cy="2.5" r="2.5"/><circle cx="56.501" cy="2.5" r="2.5"/><circle cx="74.501" cy="2.5" r="2.5"/><circle cx="92.501" cy="2.5" r="2.5"/>
		</symbol>
	
		<symbol id="03" viewBox="0 0 26 18">
			<path d="M13 0l12.124 18H.876L13 0z"/>
		</symbol>
	
		<symbol id="04" viewBox="0 0 83 83">
			<path d="M0 41.012L41.012 0l41.012 41.012-41.012 41.012z"/>
		</symbol>
	
		<symbol id="05" viewBox="0 0 103 103">
			<circle cx="60.965" cy="98.604" r="2.5" transform="rotate(-45 60.965 98.604)"/><circle cx="73.693" cy="85.876" r="2.5" transform="rotate(-45 73.693 85.876)"/><circle cx="86.421" cy="73.148" r="2.5" transform="rotate(-45 86.42 73.148)"/><circle cx="99.148" cy="60.42" r="2.5" transform="rotate(-45 99.148 60.42)"/><circle cx="46.823" cy="84.462" r="2.5" transform="rotate(-45 46.823 84.462)"/><circle cx="59.551" cy="71.734" r="2.5" transform="rotate(-45 59.55 71.734)"/><circle cx="72.279" cy="59.006" r="2.5" transform="rotate(-45 72.279 59.006)"/><circle cx="85.006" cy="46.278" r="2.5" transform="rotate(-45 85.006 46.278)"/><circle cx="32.681" cy="70.32" r="2.5" transform="rotate(-45 32.68 70.32)"/><circle cx="45.409" cy="57.592" r="2.5" transform="rotate(-45 45.409 57.592)"/><circle cx="58.137" cy="44.864" r="2.5" transform="rotate(-45 58.137 44.864)"/><circle cx="18.538" cy="56.178" r="2.5" transform="rotate(-45 18.538 56.178)"/><circle cx="31.267" cy="43.45" r="2.5" transform="rotate(-45 31.267 43.45)"/><circle cx="4.396" cy="42.036" r="2.5" transform="rotate(-45 4.396 42.036)"/>
		</symbol>
	
		<symbol id="06" viewBox="0 0 18 18">
			<circle cx="9" cy="9" r="9"/>
		</symbol>
	
		<symbol id="07" viewBox="0 0 18 18">
			<circle cx="9" cy="9" r="9"/>
		</symbol>
	
		<symbol id="08" viewBox="0 0 127 91">
			<path d="M24.544.646l89.095 89.096M36.639.646l89.096 89.096M.354.646l89.095 89.096M12.449.646l89.095 89.096"/>
		</symbol>
	
		<symbol id="09" viewBox="0 0 122 122">
			<mask id="a" maskUnits="userSpaceOnUse" x="17" y="17" width="87" height="87"><path d="M91.217 30.405c16.792 16.793 16.792 44.02 0 60.812-16.793 16.792-44.019 16.792-60.811 0-16.793-16.793-16.793-44.019 0-60.812 16.792-16.792 44.018-16.792 60.81 0z"/></mask><g mask="url(#a)"><path d="M16.537 18.208v85.194h4.26V18.208h-4.26zM25.987 18.208v85.194h4.259V18.208h-4.26zM35.462 18.21v85.195h4.26V18.211h-4.26zM44.933 18.216v85.195h4.26V18.216h-4.26zM54.392 18.21v85.194h4.26V18.21h-4.26zM63.868 18.213v85.194h4.259V18.213h-4.26zM73.324 18.213v85.195h4.26V18.213h-4.26zM82.793 18.216v85.195h4.26V18.216h-4.26zM92.25 18.216v85.195h4.259V18.216h-4.26zM101.735 18.22v85.195h4.259V18.22h-4.259z"/></g>
		</symbol>
	
		<symbol id="10" viewBox="0 0 53 48">
			<path d="M21.53 5.852L52.147 36.47 10.322 47.678 21.53 5.852z"/>
		</symbol>
	
		<symbol id="bullseye" viewBox="0 0 480.011 480.011">
			<path d="M479.823 233.653c-4.418-95.717-85.594-169.73-181.311-165.311-89.531 4.133-161.179 75.78-165.311 165.311h-24.568l-23.2-37.416a8 8 0 0 0-6.8-3.784H8.048a8 8 0 0 0-6.8 12.216l23.096 37.232-23.096 37.24a8 8 0 0 0 6.8 12.216h70.584a8 8 0 0 0 6.8-3.784l23.512-37.92H133.2c4.418 95.717 85.594 169.73 181.311 165.311s169.73-85.593 165.312-181.311zM74.176 275.357H22.4l15.632-25.2h51.752l-15.608 25.2zm-36.12-41.704l-15.656-25.2h51.776l15.632 25.2H38.056zm268.858 165.512c-83.96.109-153.246-65.66-157.506-149.512h32.68c4.418 68.783 63.76 120.962 132.543 116.543s120.962-63.76 116.543-132.543-63.76-120.962-132.543-116.543c-62.623 4.023-112.521 53.92-116.543 116.543h-32.68c4.284-83.676 73.31-149.363 157.096-149.496 86.987-.113 157.596 70.312 157.709 157.299.113 86.987-70.312 157.596-157.299 157.709zm-.418-165.512h-8.192c4.418-4.547 11.686-4.652 16.233-.234s4.652 11.686.234 16.234-11.686 4.652-16.234.233a12.796 12.796 0 0 1-.233-.233h8.192a8 8 0 0 0 0-16zm8.169 34.282c14.515-4.418 22.7-19.767 18.281-34.281-4.418-14.515-19.767-22.7-34.281-18.281a27.47 27.47 0 0 0-18.281 18.281h-33.44c4.418-32.921 34.688-56.028 67.61-51.61s56.028 34.688 51.61 67.61-34.688 56.028-67.61 51.61c-26.868-3.606-48.004-24.741-51.61-51.61h33.44c4.418 14.514 19.767 22.699 34.281 18.281zm-.158 49.441c41.82-4.418 72.141-41.902 67.723-83.723-4.418-41.82-41.902-72.141-83.723-67.723-35.722 3.774-63.949 32-67.723 67.723h-32.696c4.418-59.926 56.58-104.924 116.505-100.505s104.924 56.58 100.505 116.505-56.58 104.924-116.505 100.506c-53.78-3.965-96.54-46.726-100.505-100.506h32.696c4.418 41.821 41.902 72.141 83.723 67.723zM80 .005h64v16H80zM144 56.005h64v16h-64zM48 .005h16v16H48z"/><path d="M32 152.005h64v16H32zM0 152.005h16v16H0zM64 328.005h48v16H64zM32 328.005h16v16H32zM160 400.005h16v16h-16zM32 464.005h64v16H32zM0 464.005h16v16H0z"/>
		</symbol>
	
		<symbol id="clock" viewBox="0 0 31.059 31.059">
			<path d="M15.529 31.059C6.966 31.059 0 24.093 0 15.529 0 6.967 6.966 0 15.529 0s15.529 6.967 15.529 15.529c.001 8.564-6.966 15.53-15.529 15.53zm0-29.284c-7.584 0-13.754 6.17-13.754 13.754 0 7.585 6.17 13.755 13.754 13.755s13.754-6.17 13.754-13.755c.001-7.584-6.169-13.754-13.754-13.754z"/><path d="M20.292 21.179a.883.883 0 0 1-.628-.26l-4.762-4.762a.886.886 0 0 1-.26-.628V5.454a.887.887 0 0 1 1.775 0v9.708l4.502 4.502a.887.887 0 0 1-.627 1.515z"/>
		</symbol>
	
		<symbol id="diamond" viewBox="0 0 59.986 59.986">
			<path d="M59.972 20.164a1.005 1.005 0 0 0-.054-.531c-.009-.024-.011-.049-.022-.072-.008-.017-.022-.03-.031-.047-.009-.017-.013-.035-.023-.052l-10-16a1.026 1.026 0 0 0-.161-.197l-.003-.002a.983.983 0 0 0-.297-.185c-.014-.006-.023-.018-.038-.024-.011-.004-.023-.002-.034-.005a.98.98 0 0 0-.314-.057h-38a.977.977 0 0 0-.31.056c-.011.003-.022.001-.032.005-.015.005-.024.017-.038.023a.997.997 0 0 0-.287.175c-.005.005-.012.008-.017.012a1.006 1.006 0 0 0-.163.198l-10 16c-.01.016-.014.035-.023.052-.009.017-.023.03-.031.047-.011.023-.013.048-.023.072a.988.988 0 0 0 .025.789c.009.018.012.038.022.056.016.029.04.051.058.078.014.021.022.044.039.064l28.989 35.986a.043.043 0 0 0 .006.007l.005.007c.003.004.008.005.011.009a.982.982 0 0 0 .384.277.987.987 0 0 0 .383.087c.114 0 .229-.02.343-.061.017-.006.028-.02.045-.027.051-.021.091-.055.137-.084a.968.968 0 0 0 .206-.163c.014-.015.035-.022.048-.038l29-36c.016-.02.024-.044.039-.064.019-.027.042-.049.058-.078.01-.018.013-.038.022-.056a.945.945 0 0 0 .045-.115c.014-.047.028-.093.036-.142zM32.095 4.993h15.459l-4.86 13.045L32.095 4.993zm8.797 14H19.095L29.993 5.58l10.899 13.413zm-23.67-.868L12.423 4.993h15.469l-10.67 13.132zm24.371 2.868L29.818 52.599 18.269 20.993h23.324zm7.628-14.747l7.967 12.748H44.472l4.749-12.748zm-38.465.013l4.653 12.734H2.798l7.958-12.734zm5.384 14.734l10.839 29.664L3.083 20.993H16.14zm16.25 30.43l11.337-30.43h13.176L32.39 51.423z"/>
		</symbol>
	
		<symbol id="earth-globe" viewBox="0 0 512 512">
			<path d="M429.2 82.8C383 36.5 321.4 11 256 11S129 36.5 82.8 82.8 11 190.6 11 256s25.5 127 71.8 173.2S190.6 501 256 501s127-25.5 173.2-71.8S501 321.4 501 256s-25.5-127-71.8-173.2zM478.8 245h-95c-.9-37.8-6.2-74.2-15.5-106.5 18.1-9.3 35-21 50.5-34.8 35 37.4 57.3 86.8 60 141.3zM267 267h94.9c-.8 34.8-5.6 68.1-13.9 97.9-25.6-10.3-52.9-16.3-81-17.6V267zM403 88.4c-12.8 11.3-26.8 20.9-41.6 28.9-3.8-10.6-8.1-20.6-12.9-30-9.5-18.8-20.3-34.2-32.2-46 32.5 9.1 62 25.4 86.7 47.1zm-136-52c22.9 5.1 44.5 26.2 61.9 60.6 4.7 9.3 8.9 19.2 12.6 29.7-23.5 9.7-48.6 15.4-74.5 16.7v-107zm81.1 111.4c8.2 29.6 12.9 62.7 13.7 97.3H267v-79.6c28.2-1.3 55.5-7.4 81.1-17.7zM245 245h-94.9c.8-34.6 5.5-67.7 13.7-97.3 25.6 10.4 53 16.4 81.1 17.6V245zm.1-208.6v107c-25.9-1.3-51.1-7-74.5-16.7 3.7-10.5 7.9-20.4 12.6-29.7 17.4-34.4 39-55.5 61.9-60.6zm-49.3 4.9c-11.9 11.8-22.7 27.3-32.2 46-4.7 9.4-9 19.4-12.9 30-14.8-8-28.7-17.6-41.6-28.9 24.7-21.7 54.2-38 86.7-47.1zM93.3 103.7c15.5 13.8 32.4 25.4 50.5 34.8-9.3 32.4-14.7 68.7-15.5 106.5h-95c2.7-54.5 25-103.9 60-141.3zM33.3 267h95c.9 38.1 6.3 74.6 15.7 107.1-18 9.3-34.9 20.8-50.3 34.6-35.3-37.5-57.7-87-60.4-141.7zm76.2 157c12.8-11.2 26.7-20.8 41.4-28.7 3.8 10.3 8 20.2 12.7 29.4 9.5 18.8 20.3 34.2 32.2 46.1-32.3-9.1-61.7-25.3-86.3-46.8zm135.6 51.6c-22.9-5.1-44.5-26.2-61.9-60.6-4.6-9.1-8.7-18.8-12.4-29.1 23.4-9.7 48.5-15.4 74.3-16.6v106.3zm-81-110.7c-8.3-29.8-13.1-63.1-13.9-97.9h94.9v80.3c-28.1 1.2-55.4 7.2-81 17.6zm103 110.7V369.3c25.8 1.3 50.9 6.9 74.3 16.6-3.7 10.3-7.8 20-12.4 29.1-17.4 34.4-39 55.5-61.9 60.6zm49.3-4.9c11.9-11.8 22.7-27.3 32.2-46.1 4.7-9.2 8.9-19.1 12.7-29.4 14.7 7.9 28.6 17.5 41.4 28.7-24.6 21.6-54 37.8-86.3 46.8zm102.2-62c-15.4-13.7-32.3-25.3-50.3-34.6 9.4-32.5 14.8-69.1 15.7-107.1h95c-2.8 54.7-25.2 104.2-60.4 141.7z"/>
		</symbol>
	
		<symbol id="flag" viewBox="0 0 512 512">
			<path d="M509.622 464.823L402.004 289.912c-2.943-4.782-8.052-7.637-13.667-7.637-5.614 0-10.723 2.856-13.664 7.637l-13.972 22.709a7.512 7.512 0 0 0 12.796 7.873l13.972-22.71c.074-.12.299-.486.87-.486s.797.366.871.486l107.618 174.911c.086.139.314.51.022 1.033-.292.523-.728.523-.892.523h-59.6L269.665 203.333a16 16 0 0 0-5.958-5.678l.008.004v-50.98a69.434 69.434 0 0 0 18.297 2.419c17.132 0 33.175-5.955 48.87-11.781 21.748-8.073 42.29-15.698 64.508-6.788a9.276 9.276 0 0 0 8.66-.927 9.286 9.286 0 0 0 4.089-7.701V37.044a9.286 9.286 0 0 0-5.65-8.561c-28.203-12.027-52.927-2.851-76.836 6.023-22.398 8.314-43.553 16.167-66.588 5.872a7.514 7.514 0 0 0-10.577 6.858v.279a7.7 7.7 0 0 0-.203 1.736v148.408a16.016 16.016 0 0 0-5.951 5.674l-79.139 128.623-25.868-42.043c-2.942-4.782-8.051-7.637-13.666-7.637-5.614 0-10.723 2.855-13.665 7.637L2.377 464.823a16.06 16.06 0 0 0-.341 16.235 16.057 16.057 0 0 0 14.006 8.218h479.915a16.057 16.057 0 0 0 14.006-8.218 16.057 16.057 0 0 0-.341-16.235zM263.512 57.901c24.317 6.67 46.158-1.437 67.37-9.311 20.985-7.79 40.867-15.168 62.234-7.642v72.985c-24.39-6.688-46.253 1.428-67.462 9.3-20.95 7.776-40.813 15.149-62.142 7.646V57.901zM93.282 474.252l25.771-41.885a7.512 7.512 0 0 0-12.795-7.873l-30.615 49.758h-59.6c-.164 0-.6 0-.892-.523s-.065-.893.022-1.033l107.619-174.91c.074-.12.299-.486.87-.486s.796.366.87.486l29.844 48.504-29.799 48.431a7.512 7.512 0 0 0 12.795 7.873L255.13 211.205c.074-.12.299-.486.87-.486.57 0 .795.366.87.486l161.848 263.047H93.282z"/>
		</symbol>
	
		<symbol id="handshake" viewBox="0 0 491.064 491.064">
			<path d="M61.408 133.532c-13.232 0-24 10.768-24 24s10.768 24 24 24 24-10.768 24-24-10.768-24-24-24zm0 32c-4.408 0-8-3.592-8-8s3.592-8 8-8 8 3.592 8 8-3.592 8-8 8z"/><path d="M491.064 203.188l-11.312-11.312-114.48 114.48c-.432-.488-.776-1.04-1.24-1.512l-67.312-67.312 10.344-10.344-11.312-11.312L272 239.628c-12.728 12.72-32.432 14.48-47.096 5.272l58.136-57.68c.008-.008.008-.016.016-.024l152-152-11.312-11.312L277.408 170.22l-10.344-10.344a7.979 7.979 0 0 0-5.656-2.344H232.72l-13.656-13.656-112-112-11.312 11.312 74.344 74.344-102.32 102.32-56.96-52.216L0 179.436l93.408 85.616v20.48c0 2.12.84 4.16 2.344 5.656l34.6 34.6c-3.16 4.264-4.944 9.368-4.944 14.776 0 13.472 10.736 24.408 24.088 24.88.464 13.056 10.944 23.536 24 24 .464 13.056 10.944 23.536 24 24 .472 13.352 11.416 24.088 24.88 24.088 3.4 0 6.696-.696 9.736-1.984l.608.608c6.04 6.048 14.08 9.376 22.632 9.376 8.552 0 16.584-3.328 22.624-9.376l86.056-86.056c6.048-6.048 9.376-14.08 9.376-22.624 0-2.048-.216-4.064-.592-6.04l118.248-118.248zm-411.48 27.488l101.824-101.832 20.688 20.688L101.168 250.46l-21.584-19.784zm77.136 116.232a8.933 8.933 0 0 1-6.344 2.624c-4.944 0-8.968-4.024-8.968-8.968 0-2.4.936-4.648 2.624-6.344l38.064-38.064a8.933 8.933 0 0 1 6.344-2.624c4.944 0 8.968 4.024 8.968 8.968 0 2.4-.936 4.648-2.624 6.344l-38.064 38.064zm24 24a8.933 8.933 0 0 1-6.344 2.624c-4.944 0-8.968-4.024-8.968-8.968 0-2.4.936-4.648 2.624-6.344l38.064-38.064a8.933 8.933 0 0 1 6.344-2.624c4.944 0 8.968 4.024 8.968 8.968 0 2.4-.936 4.648-2.624 6.344l-38.064 38.064zm24 24a8.933 8.933 0 0 1-6.344 2.624c-4.944 0-8.968-4.024-8.968-8.968 0-2.4.936-4.648 2.624-6.344l38.064-38.064a8.933 8.933 0 0 1 6.344-2.624c4.944 0 8.968 4.024 8.968 8.968 0 2.4-.936 4.648-2.624 6.344l-38.064 38.064zm24 24a8.933 8.933 0 0 1-6.344 2.624c-4.944 0-8.968-4.024-8.968-8.968 0-2.4.936-4.648 2.624-6.344l38.064-38.064a8.933 8.933 0 0 1 6.344-2.624c4.944 0 8.968 4.024 8.968 8.968 0 2.4-.936 4.648-2.624 6.344l-38.064 38.064zm124-80.12l-86.056 86.056c-5.816 5.816-15.736 5.976-21.864.616l33.304-33.304a24.836 24.836 0 0 0 7.304-17.656c0-13.472-10.736-24.408-24.088-24.88-.464-13.056-10.944-23.536-24-24-.464-13.056-10.944-23.536-24-24-.472-13.352-11.416-24.088-24.88-24.088-6.672 0-12.944 2.6-17.656 7.312l-29.376 29.376-32-32v-17.376l104-104 10.344 10.344a7.979 7.979 0 0 0 5.656 2.344h28.688l7.976 7.976-58.8 58.344a8.006 8.006 0 0 0 .024 11.376c21.032 20.72 55.144 20.592 76.016-.296l2.096-2.088 67.312 67.312a15.896 15.896 0 0 1 4.688 11.32c0 4.28-1.664 8.288-4.688 11.312zM55.784 349.044l-14.04 7.68c2.632 4.808 5.48 9.6 8.464 14.232l13.456-8.656a213.982 213.982 0 0 1-7.88-13.256zM169.936 447.98l-5.608 14.984a224.943 224.943 0 0 0 15.728 5.232l4.496-15.352a212.772 212.772 0 0 1-14.616-4.864zM115.952 418.452l-9.608 12.8c4.4 3.304 8.984 6.488 13.608 9.464l8.656-13.456a216.403 216.403 0 0 1-12.656-8.808zM141.88 435.156l-7.68 14.032c4.816 2.632 9.8 5.136 14.816 7.432l6.664-14.544a224.336 224.336 0 0 1-13.8-6.92zM92.648 398.244l-11.32 11.304a230.82 230.82 0 0 0 12.12 11.296l10.488-12.088a219.02 219.02 0 0 1-11.288-10.512zM72.448 374.948l-12.8 9.6a235.854 235.854 0 0 0 10.392 12.888l12.088-10.488a228.848 228.848 0 0 1-9.68-12zM29.952 260.98l-15.96 1.136c.384 5.48.976 11.016 1.752 16.464l15.84-2.256c-.72-5.08-1.272-10.24-1.632-15.344zM13.992 229.004c-.392 5.44-.584 11-.584 16.528v.024l16-.024c0-5.152.184-10.336.544-15.392l-15.96-1.136zM34.304 291.484l-15.632 3.4a232.104 232.104 0 0 0 4.088 16.048l15.352-4.496a224.708 224.708 0 0 1-3.808-14.952zM42.976 321.052l-14.992 5.6a232.73 232.73 0 0 0 6.336 15.28l14.552-6.648a217.545 217.545 0 0 1-5.896-14.232zM441.944 335.276a219.994 219.994 0 0 1-6.928 13.8l14.04 7.68c2.632-4.816 5.136-9.8 7.432-14.816l-14.544-6.664zM427.136 362.34a219.1 219.1 0 0 1-8.816 12.664l12.8 9.608a231.61 231.61 0 0 0 9.472-13.608l-13.456-8.664zM408.624 387.004a212.394 212.394 0 0 1-10.512 11.288l11.304 11.32a230.82 230.82 0 0 0 11.296-12.12l-12.088-10.488zM452.72 306.396a218.93 218.93 0 0 1-4.864 14.624l14.984 5.6a227.759 227.759 0 0 0 5.232-15.728l-15.352-4.496zM459.24 276.284a217.285 217.285 0 0 1-2.728 15.176l15.64 3.384a229.188 229.188 0 0 0 2.92-16.304l-15.832-2.256zM386.816 408.812a220.491 220.491 0 0 1-12.008 9.688l9.6 12.8c4.408-3.304 8.744-6.8 12.888-10.392l-10.48-12.096zM199.496 456.652l-3.384 15.632a229.188 229.188 0 0 0 16.304 2.92l2.256-15.832a222.047 222.047 0 0 1-15.176-2.72zM461.408 245.532c0 5.144-.176 10.336-.536 15.416l15.96 1.128c.384-5.464.576-11.032.576-16.544h-16zM276.184 459.356a219.187 219.187 0 0 1-15.344 1.632l1.136 15.96c5.48-.384 11.016-.976 16.464-1.752l-2.256-15.84zM245.408 461.532c-5.144 0-10.32-.176-15.4-.536l-1.128 15.96c5.456.384 11.024.576 16.536.576l-.008-16zM362.16 427.292a217.059 217.059 0 0 1-13.248 7.872l7.68 14.04a234.394 234.394 0 0 0 14.224-8.456l-8.656-13.456zM335.144 442.068a214.785 214.785 0 0 1-14.224 5.896l5.592 14.992a232.73 232.73 0 0 0 15.28-6.336l-6.648-14.552zM306.296 452.836a223.46 223.46 0 0 1-14.952 3.808l3.4 15.632a232.104 232.104 0 0 0 16.048-4.088l-4.496-15.352z"/><path d="M338.728 33.82l-7.048 14.368a214.436 214.436 0 0 1 13.576 7.296l8.064-13.824a234.27 234.27 0 0 0-14.592-7.84zM245.408 13.532l-3.344.024.232 16 3.112-.024c4.224 0 8.352.096 12.384.288l.752-15.984c-4.28-.2-8.648-.304-13.136-.304zM307.68 21.716l-4.488 15.36a174.864 174.864 0 0 1 14.456 4.928l5.832-14.896a190.521 190.521 0 0 0-15.8-5.392zM275.032 15.172l-1.856 15.888a193.722 193.722 0 0 1 15.168 2.384l3.12-15.696a209.158 209.158 0 0 0-16.432-2.576zM161.176 29.292c-5.128 2-10.24 4.208-15.2 6.568l6.856 14.456A219.766 219.766 0 0 1 167 44.196l-5.824-14.904zM192.816 19.524a230.84 230.84 0 0 0-15.992 4.32l4.728 15.288a212.29 212.29 0 0 1 14.88-4.024l-3.616-15.584zM225.528 14.372a234.192 234.192 0 0 0-16.448 1.992l2.496 15.808c5.032-.8 10.184-1.424 15.304-1.856l-1.352-15.944z"/>
		</symbol>
	
		<symbol id="lightbulb" viewBox="0 0 480 480">
			<path d="M240 90.232c-61.721-.036-111.824 49.895-112 111.616a123.927 123.927 0 0 0 5.888 35.264 283.363 283.363 0 0 0 18.68 35.152C168.944 300.8 193.68 343.952 193.68 360a8 8 0 0 0 8 8h76.64a8 8 0 0 0 8-8c0-16.048 24.736-59.2 41.112-87.736a283.363 283.363 0 0 0 18.68-35.152A123.921 123.921 0 0 0 352 201.848c-.176-61.721-50.279-111.652-112-111.616zM330.944 232a333.558 333.558 0 0 1-17.392 32.272C292.92 300.28 275.384 332 271.24 352H208.8c-4.144-20-21.68-51.72-42.312-87.696A333.527 333.527 0 0 1 149.056 232 109.5 109.5 0 0 1 144 201.848c0-53.019 42.981-96 96-96s96 42.981 96 96A109.5 109.5 0 0 1 330.944 232zM278.936 460.632A8.006 8.006 0 0 0 268 457.696L257.064 464h-34.128L212 457.696a8.006 8.006 0 0 0-10.936 2.936A8.006 8.006 0 0 0 204 471.568l12.8 7.368a8.007 8.007 0 0 0 4 1.064h38.4a8.007 8.007 0 0 0 4-1.064l12.8-7.368a8.006 8.006 0 0 0 2.936-10.936zM279.96 384.8a8 8 0 0 0-8.76-7.16l-64 6.4A8 8 0 0 0 208 400c.264 0 .528 0 .8-.04l64-6.4a8 8 0 0 0 7.16-8.76zM279.96 408.8a8 8 0 0 0-8.76-7.16l-64 6.4A8 8 0 0 0 208 424c.264 0 .528 0 .8-.04l64-6.4a8 8 0 0 0 7.16-8.76zM279.96 432.8a8 8 0 0 0-8.76-7.16l-64 6.4A8 8 0 0 0 208 448c.264 0 .528 0 .8-.04l64-6.4a8 8 0 0 0 7.16-8.76zM240 0a8 8 0 0 0-8 8v56a8 8 0 0 0 16 0V8a8 8 0 0 0-8-8zM387.276 60.92a8 8 0 0 0-11.508 0l-39.6 39.6a8 8 0 0 0-.196 11.312 8 8 0 0 0 11.508 0l39.6-39.6a8 8 0 0 0 .196-11.312zM440 200h-56a8 8 0 0 0 0 16h56a8 8 0 0 0 0-16zM387.08 343.768l-39.6-39.6a8 8 0 0 0-11.312 0 8 8 0 0 0 0 11.312l39.6 39.6a8 8 0 0 0 11.312-.196 8 8 0 0 0 0-11.116zM143.636 304.168a8.001 8.001 0 0 0-11.116 0l-39.6 39.6a8 8 0 0 0 11.312 11.312l39.6-39.6a8 8 0 0 0-.196-11.312zM96 200H40a8 8 0 0 0 0 16h56a8 8 0 0 0 0-16zM143.832 100.52l-39.6-39.6A8 8 0 1 0 92.92 72.232l39.6 39.6a7.94 7.94 0 0 0 5.656 2.344 8 8 0 0 0 5.656-13.656z"/><path d="M290.345 216.358a7.997 7.997 0 0 0-4.873.058L240 231.568l-45.472-15.152a8 8 0 0 0-10.176 9.936l32 104a8.001 8.001 0 1 0 15.296-4.704l-27.432-89.144 33.256 11.08a7.925 7.925 0 0 0 5.056 0l33.256-11.08-27.432 89.144a8.001 8.001 0 1 0 15.296 4.704l32-104a7.999 7.999 0 0 0-5.303-9.994z"/>
		</symbol>
	
		<symbol id="plus-symbol" viewBox="0 0 31.444 31.444">
			<path d="M1.119 16.841a1.118 1.118 0 0 1-1.111-1.127c0-.619.492-1.111 1.111-1.111h13.475V1.127A1.133 1.133 0 0 1 15.722 0c.619 0 1.111.508 1.111 1.127v13.476h13.475c.619 0 1.127.492 1.127 1.111s-.508 1.127-1.127 1.127H16.833v13.476c0 .619-.492 1.127-1.111 1.127a1.131 1.131 0 0 1-1.127-1.127V16.841H1.119z"/>
		</symbol>
	
		<symbol id="puzzle" viewBox="0 0 480 480">
			<path d="M472 80H280a8 8 0 0 0-8 8v72a8 8 0 0 0 10.528 7.584l10.056-3.352c10.918-3.574 22.665 2.38 26.238 13.298 3.573 10.918-2.38 22.665-13.298 26.238a20.8 20.8 0 0 1-12.941 0l-10.056-3.352A8 8 0 0 0 271.999 208v64h-64a8 8 0 0 0-7.584 10.528l3.352 10.056c3.574 10.918-2.38 22.665-13.298 26.238-10.918 3.574-22.665-2.38-26.238-13.298a20.8 20.8 0 0 1 0-12.941l3.352-10.056a8 8 0 0 0-7.584-10.528H88a8 8 0 0 0-8 8v192a8 8 0 0 0 8 8h384a8 8 0 0 0 8-8V88a8 8 0 0 0-8-8zM272.41 397.478A8.006 8.006 0 0 0 272 400v64H96V288h52.904c-6.113 19.383 4.645 40.052 24.028 46.164 19.383 6.113 40.052-4.645 46.164-24.028a36.8 36.8 0 0 0 0-22.137H272v64a8 8 0 0 0 10.528 7.584l10.056-3.352c10.918-3.573 22.665 2.38 26.238 13.298 3.573 10.918-2.38 22.665-13.298 26.238a20.8 20.8 0 0 1-12.941 0l-10.056-3.352a8 8 0 0 0-10.117 5.063zM464 464H288v-52.904c19.383 6.113 40.052-4.645 46.164-24.028 6.113-19.383-4.645-40.052-24.028-46.164a36.8 36.8 0 0 0-22.137 0V288h64a8 8 0 0 0 7.584-10.528l-3.352-10.056c-3.573-10.918 2.38-22.665 13.298-26.238 10.918-3.573 22.665 2.38 26.238 13.298a20.8 20.8 0 0 1 0 12.941l-3.352 10.056a8 8 0 0 0 7.584 10.528h64V464zm0-192h-52.904c6.113-19.383-4.645-40.052-24.028-46.164-19.383-6.113-40.052 4.645-46.164 24.028a36.8 36.8 0 0 0 0 22.137H288v-52.904a36.447 36.447 0 0 0 32.712-5.224c16.546-11.802 20.392-34.783 8.59-51.329-9.32-13.066-26.033-18.585-41.302-13.639V96h176v176z"/><path d="M230.137 68.904a36.8 36.8 0 0 0-22.137 0V8a8 8 0 0 0-8-8H8a8 8 0 0 0-8 8v192a8 8 0 0 0 8 8h60.904c-6.113 19.383 4.645 40.052 24.028 46.164s40.052-4.645 46.164-24.028a36.8 36.8 0 0 0 0-22.137H200a8 8 0 0 0 8-8v-60.904c19.383 6.113 40.052-4.645 46.164-24.028 6.113-19.382-4.644-40.05-24.027-46.163zm-4.612 54.864a20.8 20.8 0 0 1-12.941 0l-10.056-3.352A8 8 0 0 0 192 128v64h-64a8 8 0 0 0-7.584 10.528l3.352 10.056c3.574 10.918-2.38 22.665-13.298 26.238-10.918 3.573-22.665-2.38-26.238-13.298a20.8 20.8 0 0 1 0-12.941l3.352-10.056A8 8 0 0 0 80 191.999H16V16h176v64a8 8 0 0 0 10.528 7.584l10.056-3.352c10.918-3.573 22.665 2.38 26.238 13.298 3.574 10.917-2.38 22.665-13.297 26.238z"/>
		</symbol>
	
		<symbol id="small-calendar" viewBox="0 0 32 32">
			<path d="M29.334 3H25V1a1 1 0 1 0-2 0v2h-6V1a1 1 0 1 0-2 0v2H9V1a1 1 0 1 0-2 0v2H2.667A2.666 2.666 0 0 0 0 5.666v23.667A2.667 2.667 0 0 0 2.667 32h26.667A2.666 2.666 0 0 0 32 29.333V5.666A2.665 2.665 0 0 0 29.334 3zM30 29.333a.667.667 0 0 1-.666.667H2.667A.667.667 0 0 1 2 29.333V5.666C2 5.299 2.299 5 2.667 5H7v2a1 1 0 1 0 2 0V5h6v2a1 1 0 1 0 2 0V5h6v2a1 1 0 1 0 2 0V5h4.334c.367 0 .666.299.666.666v23.667z"/><path d="M7 12h4v3H7zM7 17h4v3H7zM7 22h4v3H7zM14 22h4v3h-4zM14 17h4v3h-4zM14 12h4v3h-4zM21 22h4v3h-4zM21 17h4v3h-4zM21 12h4v3h-4z"/>
		</symbol>
	
		<symbol id="tick" viewBox="0 0 512 512">
			<path d="M504.502 75.496c-9.997-9.998-26.205-9.998-36.204 0L161.594 382.203 43.702 264.311c-9.997-9.998-26.205-9.997-36.204 0-9.998 9.997-9.998 26.205 0 36.203l135.994 135.992c9.994 9.997 26.214 9.99 36.204 0L504.502 111.7c9.998-9.997 9.997-26.206 0-36.204z"/>
		</symbol>
	
</svg>