<svg width="120" height="61" viewBox="0 0 120 61" fill="none" xmlns="http://www.w3.org/2000/svg">
<mask id="mask0" mask-type="alpha" maskUnits="userSpaceOnUse" x="0" y="0" width="120" height="61">
<path fill-rule="evenodd" clip-rule="evenodd" d="M0.0515137 0.0437164H119.55V60.8057H0.0515137V0.0437164Z" fill="white"/>
</mask>
<g mask="url(#mask0)">
<path fill-rule="evenodd" clip-rule="evenodd" d="M5.8782 58.7777V46.5806L8.07677 46.0714V45.3086H0.185059V46.0714L2.40677 46.5806V58.7777L0.185059 59.286V60.0497H8.07677V59.286L5.8782 58.7777ZM21.0342 52.4126C21.0342 50.4454 19.9696 49.2429 18.0719 49.2429C16.7991 49.2429 15.5956 49.8669 14.1839 51.1629L13.9062 51.1166L14.0682 49.4511L13.6285 49.1726L9.67106 50.0991V50.7009L11.1291 51.6729V58.8694L9.64792 59.3794V60.0497H15.3873V59.3794L14.1608 58.8694V51.8811C14.9476 51.4637 15.4568 51.2323 16.2436 51.2323C17.5165 51.2323 18.0025 52.0654 18.0025 53.4309V58.8694L16.7528 59.3794V60.0497H22.4922V59.3794L21.0342 58.8694V52.4126ZM24.6839 45.2391C24.6839 46.3029 25.4939 47.0897 26.5585 47.0897C27.7156 47.0897 28.5488 46.1409 28.5488 45.1003C28.5488 44.0349 27.7619 43.2249 26.6511 43.2249C25.5171 43.2249 24.6839 44.1969 24.6839 45.2391ZM25.1236 51.6729V58.8694L23.5962 59.3794V60.0497H29.5902V59.3794L28.1553 58.8694V49.404L27.7619 49.1726L23.6656 50.0991V50.7009L25.1236 51.6729ZM38.2448 59.31L38.2216 58.5926C37.7356 58.638 37.2496 58.6611 36.8793 58.6611C36.1156 58.6611 35.6759 58.5926 35.2593 58.3149C34.7965 57.9909 34.6576 57.4809 34.6576 56.5089V51.0943H38.1753V49.5429H34.6576V46.3029H33.8013L32.0888 48.9189L29.8439 50.4686V51.0943H31.6259V57.5974C31.6259 59.4711 32.5516 60.3514 34.3799 60.3514C35.7453 60.3514 37.3885 59.8414 38.2448 59.31ZM40.4133 45.2391C40.4133 46.3029 41.2233 47.0897 42.2879 47.0897C43.4451 47.0897 44.2782 46.1409 44.2782 45.1003C44.2782 44.0349 43.4913 43.2249 42.3805 43.2249C41.2465 43.2249 40.4133 44.1969 40.4133 45.2391ZM40.8531 51.6729V58.8694L39.3256 59.3794V60.0497H45.3196V59.3794L43.8848 58.8694V49.404L43.4913 49.1726L39.3951 50.0991V50.7009L40.8531 51.6729ZM55.5419 52.4597C55.5419 50.1909 54.3616 49.2429 51.8391 49.2429C49.4091 49.2429 46.8633 50.3297 46.8633 51.9266C46.8633 52.6903 47.4882 53.3383 48.3213 53.3383C49.2008 53.3383 49.7099 52.7597 49.7099 52.0191C49.7099 51.51 49.4785 51.1166 49.0619 50.7694C49.3628 50.6537 49.7793 50.562 50.2422 50.562C51.9779 50.562 52.6722 51.1406 52.6722 52.8754V54.1483C48.5065 54.45 46.4699 55.7914 46.4699 57.7586C46.4699 59.3554 47.6271 60.258 49.2933 60.258C50.5199 60.258 51.5151 59.6794 52.5565 58.7083L52.8342 58.7537C53.0193 59.8414 53.6211 60.2811 54.6856 60.2811C55.5882 60.2811 56.6065 60.0034 57.2776 59.7489L57.2313 59.1471C55.8891 59.124 55.5419 58.638 55.5419 57.8511V52.4597ZM52.6722 58.0603C52.0473 58.4537 51.4225 58.6611 50.9596 58.6611C49.8951 58.6611 49.2933 58.0826 49.2933 57.018C49.2933 55.8609 50.1959 55.0046 52.6722 54.912V58.0603ZM65.5628 59.31L65.5396 58.5926C65.0536 58.638 64.5676 58.6611 64.1973 58.6611C63.4345 58.6611 62.9939 58.5926 62.5773 58.3149C62.1145 57.9909 61.9756 57.4809 61.9756 56.5089V51.0943H65.4933V49.5429H61.9756V46.3029H61.1193L59.4068 48.9189L57.1619 50.4686V51.0943H58.9439V57.5974C58.9439 59.4711 59.8696 60.3514 61.6979 60.3514C63.0633 60.3514 64.7065 59.8414 65.5628 59.31ZM67.7313 45.2391C67.7313 46.3029 68.5413 47.0897 69.6059 47.0897C70.7631 47.0897 71.5962 46.1409 71.5962 45.1003C71.5962 44.0349 70.8093 43.2249 69.6985 43.2249C68.5645 43.2249 67.7313 44.1969 67.7313 45.2391ZM68.1711 51.6729V58.8694L66.6436 59.3794V60.0497H72.6376V59.3794L71.2028 58.8694V49.404L70.8093 49.1726L66.7131 50.0991V50.7009L68.1711 51.6729ZM77.5362 50.7926L78.9711 50.238V49.5891H72.7456V50.2834L74.1573 50.8389L78.2305 60.3043H79.9431L83.9236 51.0471L85.4742 50.2834V49.5891H80.8919V50.238L82.2342 50.9554L81.1233 54.264L80.0588 56.9949H79.9199L77.5362 50.7926ZM95.7102 54.7046C95.8259 51.7646 94.4836 49.2429 91.0122 49.2429C88.1193 49.2429 85.5042 51.6951 85.5042 55.0286C85.5042 58.2454 87.6102 60.4209 90.9196 60.4209C92.4471 60.4209 94.1596 59.634 95.5945 58.4537L95.3399 57.9214C93.9745 58.4297 93.0488 58.638 91.9842 58.638C89.6468 58.638 88.5591 57.2263 88.5359 54.7046H95.7102ZM88.5591 53.8706C88.6516 51.5571 89.5542 50.1909 90.8271 50.1909C92.1231 50.1909 92.7248 51.3017 92.7479 53.6623L88.5591 53.8706Z" fill="#FFFFFE"/>
<path fill-rule="evenodd" clip-rule="evenodd" d="M13.446 33.3454L12.9137 33.252L11.2011 35.7514C10.4374 36.8623 9.85886 37.3491 8.65543 37.3491L4.25829 37.3946L13.446 24.4586L13.3534 23.8791H1.24971L0.81 28.6011L1.38857 28.7391L2.86971 26.8877C3.86486 25.5917 4.44343 25.176 5.71629 25.176L9.25714 25.1289L0 38.0426L0.0925714 38.6211H12.9831L13.446 33.3454ZM25.7811 36.654V28.0217L25.3414 27.744L21.2914 28.6697V29.2251L22.7494 30.174V36.33C21.9626 36.7474 21.4534 36.9557 20.6666 36.9557C19.4169 36.9557 18.9077 36.1689 18.9077 34.7331V28.0217L18.4911 27.744L14.4411 28.6697V29.2251L15.876 30.174V35.7754C15.876 37.6491 16.8943 38.9683 18.8383 38.9683C20.1806 38.9683 21.3146 38.3443 22.7263 37.0474L23.004 37.0946L22.842 38.76L23.2817 39.0146L27.2623 38.0889V37.5103L25.7811 36.654ZM37.8523 30.2897C37.8523 28.9243 36.4174 27.8134 34.1263 27.8134C30.678 27.8134 28.1554 30.4063 28.1554 33.6454C28.1554 36.8391 30.5391 38.9923 33.5246 38.9923C35.1214 38.9923 36.5794 38.3906 37.8754 37.0706L37.644 36.5151C36.5563 36.9317 35.9083 37.1409 34.9594 37.1409C32.8534 37.1409 31.2797 35.7977 31.2797 33.2289C31.2797 30.4286 32.784 28.9474 34.4966 28.878C34.6586 28.878 34.7743 28.9011 34.9131 28.9243C34.7511 29.2946 34.6586 29.712 34.6586 30.1509C34.6586 31.1923 35.2603 31.9569 36.3017 31.9569C37.2043 31.9569 37.8523 31.2386 37.8523 30.2897ZM46.1537 32.2569L49.3474 29.4103L50.7823 28.8549V28.1606H45.876V28.7391L47.1489 29.526L44.3254 32.6966H43.446V21.7269L43.0063 21.4723L38.8174 22.56V23.1617L40.4143 24.1337V37.4409L38.9331 37.9509V38.6211H44.6031V37.9509L43.446 37.4409V33.9231H44.256L46.9406 37.5797L46.0843 38.0194V38.6211H51.2683V37.9509L50.1574 37.464L46.1537 32.2569ZM61.8857 33.276C62.0014 30.3369 60.6591 27.8134 57.1877 27.8134C54.2949 27.8134 51.6797 30.2666 51.6797 33.6C51.6797 36.816 53.7857 38.9923 57.0951 38.9923C58.6226 38.9923 60.3351 38.2054 61.77 37.0251L61.5154 36.4929C60.15 37.0011 59.2243 37.2103 58.1597 37.2103C55.8223 37.2103 54.7346 35.7977 54.7114 33.276H61.8857ZM54.7346 32.442C54.8271 30.1277 55.7297 28.7623 57.0026 28.7623C58.2986 28.7623 58.9003 29.8731 58.9234 32.2337L54.7346 32.442ZM72.5109 29.6194C72.5109 28.5077 71.724 27.7903 70.6363 27.7903C69.2709 27.7903 68.322 28.7391 67.3731 30.3129L67.0954 30.2443L67.35 28.0217L66.9103 27.744L62.9529 28.6697V29.2714L64.4109 30.2443V37.4409L62.9297 37.9509V38.6211H69.0857V37.9509L67.4426 37.4409V31.3311C67.9517 30.66 68.5303 30.174 69.2709 30.012C69.3866 30.7989 69.942 31.47 70.8446 31.47C71.7934 31.47 72.5109 30.6831 72.5109 29.6194ZM84.834 33.09C84.834 29.8269 82.8669 27.8134 80.6914 27.8134C79.3723 27.8134 78.4234 28.3689 77.4746 29.2251L77.1969 29.1789V21.7269L76.7571 21.4723L72.5451 22.56V23.1617L74.1651 24.1337V38.2509C75.5537 38.6906 77.382 38.9923 78.7243 38.9923C82.5197 38.9923 84.834 36.1911 84.834 33.09ZM81.6403 33.8083C81.6403 36.7474 80.5526 37.9269 79.3269 37.9269C78.4234 37.9269 77.7754 37.5574 77.1969 36.816V30.1054C77.6829 29.9194 78.2151 29.7574 78.7937 29.7574C80.5989 29.7574 81.6403 31.0534 81.6403 33.8083ZM96.5366 33.276C96.6531 30.3369 95.31 27.8134 91.8394 27.8134C88.9466 27.8134 86.3314 30.2666 86.3314 33.6C86.3314 36.816 88.4374 38.9923 91.7469 38.9923C93.2743 38.9923 94.9869 38.2054 96.4217 37.0251L96.1671 36.4929C94.8017 37.0011 93.876 37.2103 92.8106 37.2103C90.474 37.2103 89.3863 35.7977 89.3631 33.276H96.5366ZM89.3863 32.442C89.478 30.1277 90.3814 28.7623 91.6543 28.7623C92.9503 28.7623 93.552 29.8731 93.5751 32.2337L89.3863 32.442ZM107.162 29.6194C107.162 28.5077 106.375 27.7903 105.287 27.7903C103.922 27.7903 102.973 28.7391 102.024 30.3129L101.746 30.2443L102.001 28.0217L101.561 27.744L97.6037 28.6697V29.2714L99.0617 30.2443V37.4409L97.5806 37.9509V38.6211H103.737V37.9509L102.093 37.4409V31.3311C102.603 30.66 103.181 30.174 103.922 30.012C104.037 30.7989 104.593 31.47 105.495 31.47C106.444 31.47 107.162 30.6831 107.162 29.6194ZM117.606 31.3774C117.606 30.6369 117.398 30.1277 117.12 29.6417L117.166 29.4566L119.087 29.8269H119.55V27.8134H118.231L116.449 28.8086C115.639 28.23 114.667 27.8134 113.116 27.8134C110.478 27.8134 108.441 29.1557 108.441 31.308C108.441 32.628 109.298 33.6917 110.524 34.2934V34.4323C109.159 35.4977 108.511 36.33 108.511 37.0946C108.511 37.7426 108.927 38.3203 109.853 38.6211L109.876 38.8526C108.349 39.4311 107.631 40.218 107.631 41.0743C107.631 42.4174 109.228 43.4349 112.7 43.4349C116.495 43.4349 118.971 41.514 118.971 39.246C118.971 37.5103 117.722 36.5846 115.315 36.5383L112.468 36.4929C111.357 36.4689 110.941 36.1911 110.941 35.6126C110.941 35.3126 111.149 34.8951 111.381 34.5951C111.797 34.7331 112.283 34.8026 113.07 34.8026C115.87 34.8026 117.606 33.3454 117.606 31.3774ZM114.829 31.2154C114.829 33.0437 114.158 33.9934 113.116 33.9934C111.936 33.9934 111.219 33.4149 111.219 31.308C111.219 29.2946 111.959 28.6234 113.001 28.6234C114.181 28.6234 114.829 29.5029 114.829 31.2154ZM116.935 40.4263C116.935 41.5371 115.431 42.4869 113.51 42.4869C111.126 42.4869 110.131 41.6529 110.131 40.4503C110.131 39.8246 110.339 39.3163 110.64 38.9229L114.366 38.9683C116.148 38.9923 116.935 39.408 116.935 40.4263Z" fill="#FFFFFE"/>
<path fill-rule="evenodd" clip-rule="evenodd" d="M14.0477 12.6334L13.4228 12.5409L10.692 16.0354C10.1365 16.2206 9.76626 16.29 9.16455 16.29C6.29483 16.29 4.14255 14.022 4.14255 9.62486C4.14255 5.38972 5.87826 3.23743 8.19255 3.23743C10.0671 3.23743 11.3863 4.48714 12.9137 7.75029L13.77 7.704L13.4923 2.034H12.8211L12.0343 2.82086C11.0623 2.40429 9.69683 2.10343 8.42397 2.10343C3.72598 2.10343 0.323975 5.55172 0.323975 9.972C0.323975 14.8089 3.72598 17.5397 8.47026 17.5397C10.5763 17.5397 12.0805 17.1694 13.5848 16.4983L14.0477 12.6334ZM23.9991 10.5737V16.0123L22.7494 16.5214V17.1926H28.512V16.5214L27.0308 16.0123V9.55543C27.0308 7.65772 26.0125 6.38486 24.0685 6.38486C22.6337 6.38486 21.384 7.14857 20.3194 8.09743L20.0648 8.05114V0.299145L19.6251 0.0437164L15.4363 1.13143V1.73314L17.0331 2.70515V16.0123L15.552 16.5214V17.1926H21.3145V16.5214L20.0648 16.0123V9.02314C20.8748 8.58429 21.384 8.37514 22.2171 8.37514C23.5131 8.37514 23.9991 9.23143 23.9991 10.5737ZM38.646 9.60172C38.646 7.33457 37.4657 6.38486 34.9431 6.38486C32.5131 6.38486 29.9674 7.47257 29.9674 9.06943C29.9674 9.83315 30.5923 10.4811 31.4254 10.4811C32.3048 10.4811 32.814 9.90257 32.814 9.162C32.814 8.65286 32.5825 8.25943 32.166 7.91229C32.4668 7.79657 32.8834 7.704 33.3463 7.704C35.082 7.704 35.7763 8.28257 35.7763 10.0183V11.2911C31.6105 11.592 29.574 12.9343 29.574 14.9014C29.574 16.4983 30.7311 17.4009 32.3974 17.4009C33.624 17.4009 34.6191 16.8223 35.6605 15.8503L35.9383 15.8966C36.1234 16.9843 36.7251 17.4249 37.7897 17.4249C38.6923 17.4249 39.7105 17.1463 40.3817 16.8917L40.3354 16.29C38.9931 16.2669 38.646 15.7809 38.646 14.994V9.60172ZM35.7763 15.2023C35.1514 15.5957 34.5265 15.804 34.0637 15.804C32.9991 15.804 32.3974 15.2254 32.3974 14.1609C32.3974 13.0037 33.3 12.1474 35.7763 12.0549V15.2023ZM52.77 9.55543C52.77 7.58829 51.7054 6.38486 49.8077 6.38486C48.5348 6.38486 47.3314 7.00972 45.9197 8.30572L45.642 8.25943L45.804 6.59315L45.3643 6.31629L41.4068 7.24115V7.84286L42.8648 8.81486V16.0123L41.3837 16.5214V17.1926H47.1231V16.5214L45.8965 16.0123V9.02315C46.6834 8.60657 47.1925 8.37514 47.9794 8.37514C49.2523 8.37514 49.7383 9.20829 49.7383 10.5737V16.0123L48.4885 16.5214V17.1926H54.228V16.5214L52.77 16.0123V9.55543Z" fill="#FFFFFE"/>
<path fill-rule="evenodd" clip-rule="evenodd" d="M106.469 52.4811C105.941 52.848 105.323 53.0794 104.463 53.0966C103.428 53.118 102.651 52.4331 102.579 51.4226C102.541 50.8851 102.722 50.37 103.088 49.9774C103.454 49.5831 103.952 49.3629 104.491 49.3577C104.764 49.3551 105.053 49.4117 105.301 49.518C105.301 49.518 105.233 50.0829 105.212 50.3366L106.062 50.3426L106.215 49.0697L105.975 48.9197C105.528 48.6446 105.013 48.4997 104.484 48.5031C103.715 48.5109 102.976 48.8357 102.454 49.3963C101.925 49.9654 101.665 50.7069 101.721 51.4809C101.769 52.1709 102.064 52.7974 102.554 53.25C103.047 53.7086 103.713 53.9563 104.433 53.9503C104.451 53.9503 104.469 53.9486 104.487 53.9477C104.923 53.9366 105.414 53.8534 105.955 53.6391L106.569 52.4477C106.569 52.4477 106.557 52.4211 106.469 52.4811Z" fill="#DD424C"/>
<path fill-rule="evenodd" clip-rule="evenodd" d="M109.361 55.5351L109.258 56.7069L109.257 56.7197C109.216 57.162 108.979 57.5383 108.623 57.726C108.341 57.8751 108.034 57.8743 107.757 57.7226C107.468 57.5657 107.331 57.3309 107.279 57.0334C107.199 56.562 107.467 56.07 107.831 55.8214L113.541 52.1074C113.584 52.4229 113.608 52.7434 113.608 53.0691C113.608 56.9134 110.482 60.0403 106.642 60.0403C102.8 60.0403 99.6755 56.9134 99.6755 53.0691C99.6755 49.2257 102.8 46.0997 106.642 46.0997C109.513 46.0997 111.983 47.8483 113.048 50.3374L113.745 49.8849C112.525 47.1737 109.802 45.282 106.642 45.282C102.348 45.282 98.8535 48.7749 98.8535 53.0691C98.8535 57.3626 102.348 60.8571 106.642 60.8571C110.935 60.8571 114.429 57.3626 114.429 53.0691C114.429 52.5737 114.382 52.0886 114.293 51.6197C114.238 51.312 114.122 50.9031 114.102 50.8371L112.48 51.8511L110.332 53.2106C110.258 52.9243 110.084 52.6363 109.718 52.47C109.284 52.272 108.58 52.4246 108.064 52.7169C108.064 52.7169 109.477 49.9826 109.713 49.5334C109.727 49.5043 109.706 49.4691 109.672 49.4691L109.586 49.4709V49.4683H107.03L106.923 50.3529L107.323 50.3511H108.356L106.331 54.2254C106.292 54.3009 106.374 54.3831 106.45 54.3429L107.53 53.7686C108.052 53.5011 108.92 52.9526 109.349 53.2706C109.411 53.316 109.491 53.4386 109.496 53.5671C109.498 53.616 109.473 53.6631 109.432 53.6906L107.277 55.1469C106.576 55.6466 106.304 56.3914 106.369 57.0934C106.423 57.6831 106.79 58.1923 107.336 58.488C107.62 58.6431 107.932 58.7169 108.239 58.7083C108.511 58.7006 108.782 58.6294 109.036 58.4949C109.649 58.1717 110.058 57.54 110.13 56.808L110.303 54.8357L109.361 55.5351Z" fill="#DD424C"/>
</g>
</svg>
